<svg width="543" height="133" viewBox="0 0 543 133" fill="none" xmlns="http://www.w3.org/2000/svg">
<rect width="543" height="133" fill="white"/>
<g clip-path="url(#clip0_2105_478)">
<path d="M211.189 55.6868C213.577 58.0755 213.577 62.0317 211.189 64.4203L186.183 89.4264C184.988 90.6207 183.421 91.2179 181.853 91.2179C180.286 91.2179 178.718 90.5461 177.524 89.4264C175.956 87.9335 175.732 86.7392 175.732 85.0224V44.7886C175.732 41.355 178.419 38.5931 181.853 38.5931C185.287 38.5931 187.974 41.355 187.974 44.7886V70.168L202.455 55.6868C204.918 53.2982 208.8 53.2982 211.189 55.6868ZM206.859 78.9015C210.218 78.9015 212.98 81.6633 212.98 85.097C212.98 88.456 210.218 91.2179 206.859 91.2179C203.426 91.2179 200.664 88.456 200.664 85.097C200.664 81.6633 203.426 78.9015 206.859 78.9015ZM226.538 91.2179C223.179 91.2179 220.417 88.456 220.417 85.097V44.714C220.417 41.355 223.179 38.5931 226.538 38.5931C229.897 38.5931 232.659 41.355 232.659 44.714V85.097C232.659 88.456 229.897 91.2179 226.538 91.2179ZM277.496 72.5566C277.422 82.8576 269.061 91.2179 258.76 91.2179C248.534 91.2179 240.099 82.8576 240.099 72.5566C240.099 62.2556 248.534 53.8954 258.76 53.8954C269.061 53.8954 277.422 62.2556 277.496 72.5566ZM258.76 79.0507C262.194 79.0507 265.329 75.9903 265.329 72.5566C265.329 69.1229 262.194 66.0625 258.76 66.0625C255.327 66.0625 252.266 69.1229 252.266 72.5566C252.266 75.9903 255.327 79.0507 258.76 79.0507ZM284.93 72.5566C284.93 62.2556 293.29 53.8954 303.591 53.8954H316.057C319.491 53.8954 322.252 56.6572 322.252 60.0909C322.252 63.5246 319.491 66.3611 316.057 66.3611H303.591C300.157 66.3611 297.396 69.1229 297.396 72.5566C297.396 75.9903 300.157 78.7522 303.591 78.7522H316.057C319.491 78.7522 322.252 81.5887 322.252 85.0224C322.252 88.456 319.491 91.2179 316.057 91.2179H303.591C293.29 91.2179 284.93 82.8576 284.93 72.5566ZM348.424 53.8207C358.725 53.8207 367.085 62.2556 367.085 72.5566V85.0224C367.085 88.456 364.323 91.2179 360.889 91.2179C357.456 91.2179 354.619 88.456 354.619 85.0224V72.5566C354.619 69.1229 351.857 66.2864 348.424 66.2864C344.99 66.2864 342.153 69.1229 342.153 72.5566V85.0224C342.153 88.456 339.392 91.2179 335.958 91.2179C332.524 91.2179 329.688 88.456 329.688 85.0224V72.5566C329.688 72.1834 329.762 71.8848 329.762 71.5116V44.714C329.762 41.355 332.524 38.5931 335.883 38.5931C339.317 38.5931 342.079 41.355 342.079 44.714V54.9404C344.02 54.1939 346.184 53.8207 348.424 53.8207Z" fill="black"/>
</g>
<rect x="75" y="36" width="58.4043" height="61" rx="5" fill="#002BC5"/>
<g clip-path="url(#clip1_2105_478)">
<path d="M104.202 62.9702C107.128 62.9702 108.916 64.912 110.593 69.6168C112.466 74.9079 114.139 82.3989 121.747 82.3989C126.046 82.3989 126.038 76.2635 121.747 76.2635C117.455 76.2635 117.46 73.0533 115.451 67.5717C113.714 62.6764 110.347 57.3461 104.202 57.3461C98.0577 57.3461 94.6904 62.6764 92.9543 67.5717C90.9451 73.0533 90.9498 76.2635 86.6583 76.2635C82.3668 76.2635 82.3585 82.3989 86.6583 82.3989C94.2659 82.3989 95.9388 74.9079 97.8114 69.6168C99.489 64.912 101.276 62.9702 104.202 62.9702Z" fill="white"/>
<path fill-rule="evenodd" clip-rule="evenodd" d="M83.4854 50.6994C83.4854 48.9346 84.916 47.5039 86.6809 47.5039L121.723 47.5039C123.488 47.5039 124.919 48.9346 124.919 50.6994C124.919 52.4643 123.488 53.8949 121.723 53.8949L86.6809 53.8949C84.916 53.8949 83.4854 52.4643 83.4854 50.6994Z" fill="white"/>
<circle cx="104.266" cy="79.1394" r="4.40981" fill="white"/>
</g>
<defs>
<clipPath id="clip0_2105_478">
<rect width="199" height="82.0778" fill="white" transform="translate(172 25.9611)"/>
</clipPath>
<clipPath id="clip1_2105_478">
<rect width="41.5319" height="41.5319" fill="white" transform="translate(83.4365 45.734)"/>
</clipPath>
</defs>
</svg>
