<svg width="248" height="68" viewBox="0 0 248 68" fill="none" xmlns="http://www.w3.org/2000/svg">
<path d="M46.6108 22.1132C49.6956 25.198 49.6956 30.3073 46.6108 33.3921L14.3164 65.6864C12.774 67.2288 10.7496 68 8.72519 68C6.70077 68 4.67635 67.1324 3.13394 65.6864C1.10952 63.7584 0.820312 62.216 0.820312 59.9987V8.03863C0.820312 3.60419 4.29075 0.0373535 8.72519 0.0373535C13.1596 0.0373535 16.6301 3.60419 16.6301 8.03863V40.815L35.3319 22.1132C38.5131 19.0283 43.5259 19.0283 46.6108 22.1132ZM41.0195 52.0939C45.3576 52.0939 48.9244 55.6607 48.9244 60.0951C48.9244 64.4332 45.3576 68 41.0195 68C36.5851 68 33.0182 64.4332 33.0182 60.0951C33.0182 55.6607 36.5851 52.0939 41.0195 52.0939Z" fill="currentColor"/>
<path d="M66.434 68C62.0959 68 58.5291 64.4332 58.5291 60.0951V7.94223C58.5291 3.60419 62.0959 0.0373535 66.434 0.0373535C70.772 0.0373535 74.3388 3.60419 74.3388 7.94223V60.0951C74.3388 64.4332 70.772 68 66.434 68Z" fill="currentColor"/>
<path d="M132.244 43.8998C132.148 57.2031 121.351 68 108.048 68C94.8406 68 83.9473 57.2031 83.9473 43.8998C83.9473 30.5965 94.8406 19.7996 108.048 19.7996C121.351 19.7996 132.148 30.5965 132.244 43.8998ZM108.048 52.2867C112.482 52.2867 116.531 48.3342 116.531 43.8998C116.531 39.4653 112.482 35.5129 108.048 35.5129C103.613 35.5129 99.6607 39.4653 99.6607 43.8998C99.6607 48.3342 103.613 52.2867 108.048 52.2867Z" fill="currentColor"/>
<path d="M141.844 43.8998C141.844 30.5965 152.641 19.7996 165.945 19.7996H182.044C186.478 19.7996 190.045 23.3664 190.045 27.8008C190.045 32.2353 186.478 35.8985 182.044 35.8985H165.945C161.51 35.8985 157.943 39.4653 157.943 43.8998C157.943 48.3342 161.51 51.9011 165.945 51.9011H182.044C186.478 51.9011 190.045 55.5643 190.045 59.9987C190.045 64.4332 186.478 68 182.044 68H165.945C152.641 68 141.844 57.2031 141.844 43.8998Z" fill="currentColor"/>
<path d="M223.844 19.7031C237.147 19.7031 247.944 30.5965 247.944 43.8998V59.9987C247.944 64.4332 244.377 68 239.943 68C235.508 68 231.845 64.4332 231.845 59.9987V43.8998C231.845 39.4653 228.278 35.8021 223.844 35.8021C219.409 35.8021 215.746 39.4653 215.746 43.8998V59.9987C215.746 64.4332 212.179 68 207.745 68C203.311 68 199.647 64.4332 199.647 59.9987V43.8998C199.647 43.4178 199.744 43.0322 199.744 42.5502V7.94223C199.744 3.60419 203.311 0.0373535 207.649 0.0373535C212.083 0.0373535 215.65 3.60419 215.65 7.94223V21.1492C218.156 20.1852 220.952 19.7031 223.844 19.7031Z" fill="currentColor"/>
</svg>
