<svg width="180" height="188" viewBox="0 0 180 188" fill="none" xmlns="http://www.w3.org/2000/svg">
<rect width="180" height="188" rx="10" fill="#002BC5"/>
<path d="M89.9997 83.1213C99.0176 83.1213 104.526 89.106 109.697 103.606C115.468 119.913 120.624 143 144.07 143C157.322 143 157.297 124.091 144.07 124.091C130.844 124.091 130.859 114.197 124.666 97.3031C119.316 82.2157 108.937 65.788 89.9997 65.788C71.0621 65.788 60.684 82.2157 55.3334 97.3031C49.1411 114.197 49.1555 124.091 35.9293 124.091C22.703 124.091 22.6775 143 35.9293 143C59.3759 143 64.5316 119.913 70.303 103.606C75.4733 89.106 80.9818 83.1213 89.9997 83.1213Z" fill="white"/>
<path fill-rule="evenodd" clip-rule="evenodd" d="M26.1514 45.3031C26.1514 39.8639 30.5607 35.4546 35.9998 35.4546L144 35.4546C149.439 35.4546 153.848 39.8639 153.848 45.3031C153.848 50.7422 149.439 55.1515 144 55.1515L35.9998 55.1515C30.5607 55.1515 26.1514 50.7422 26.1514 45.3031Z" fill="white"/>
<circle cx="90.1973" cy="132.954" r="13.5909" fill="white"/>
</svg>
